<?xml version="1.0" encoding="UTF-8"?>
<svg version="1.1" xmlns="http://www.w3.org/2000/svg" width="612" height="408">
<path d="M0 0 C0.83311203 -0.00540298 1.66622406 -0.01080597 2.52458191 -0.01637268 C5.27057732 -0.02885118 8.01552257 -0.01237653 10.76147461 0.00561523 C12.67288773 0.00546024 14.58430116 0.00397119 16.49571228 0.00120544 C20.49793421 -0.0001781 24.49979757 0.01237333 28.50195312 0.03515625 C33.63242926 0.06355992 38.76231056 0.06079774 43.89283085 0.04806614 C47.83822208 0.04111261 51.78347574 0.0488942 55.72884941 0.06132317 C57.62068593 0.06583948 59.51253721 0.06617289 61.40437508 0.06225777 C64.04723543 0.05934826 66.68927465 0.0758391 69.33203125 0.09765625 C70.11395844 0.0931546 70.89588562 0.08865295 71.70150757 0.08401489 C74.90104059 0.12791382 77.21989516 0.29381109 80.0556488 1.83946228 C82.97678846 4.98091949 82.71965249 8.18988499 82.69897461 12.26342773 C82.69414062 13.94082031 82.69414062 13.94082031 82.68920898 15.65209961 C82.67664063 17.40296875 82.67664063 17.40296875 82.66381836 19.18920898 C82.65930664 20.36805664 82.65479492 21.5469043 82.65014648 22.76147461 C82.63835109 25.67493687 82.62189106 28.58829762 82.60131836 31.50170898 C80.35131836 32.68920898 80.35131836 32.68920898 77.60131836 33.50170898 C76.28131836 32.51170898 74.96131836 31.52170898 73.60131836 30.50170898 C73.60131836 23.57170898 73.60131836 16.64170898 73.60131836 9.50170898 C47.86131836 9.50170898 22.12131836 9.50170898 -4.39868164 9.50170898 C-4.39868164 29.30170898 -4.39868164 49.10170898 -4.39868164 69.50170898 C13.42131836 69.50170898 31.24131836 69.50170898 49.60131836 69.50170898 C48.09589664 61.55318797 48.09589664 61.55318797 45.60131836 54.50170898 C45.60131836 53.51170898 45.60131836 52.52170898 45.60131836 51.50170898 C44.93487305 51.93741211 44.26842773 52.37311523 43.58178711 52.82202148 C25.0060199 64.82482491 25.0060199 64.82482491 17.60131836 65.50170898 C14.43383202 63.78955421 13.755533 62.96435289 12.60131836 59.50170898 C12.50622136 58.15727417 12.46329426 56.80871196 12.45605469 55.4609375 C12.44967484 54.65322403 12.44329498 53.84551056 12.4367218 53.01332092 C12.43560898 52.14452805 12.43449615 51.27573517 12.43334961 50.38061523 C12.43002121 49.48430893 12.42669281 48.58800262 12.42326355 47.66453552 C12.41820147 45.76903802 12.415855 43.8735316 12.41601562 41.97802734 C12.41382942 39.07887084 12.39566693 36.18009502 12.37670898 33.28100586 C12.37377487 31.43921029 12.37179019 29.5974129 12.37084961 27.75561523 C12.36366409 26.88884659 12.35647858 26.02207794 12.34907532 25.12904358 C12.35215195 24.31817795 12.35522858 23.50731232 12.35839844 22.671875 C12.35697342 21.96144547 12.3555484 21.25101593 12.3540802 20.51905823 C12.64645861 18.13338537 13.34431576 16.54253867 14.60131836 14.50170898 C17.67959912 12.9625686 20.19510014 13.26983287 23.60131836 13.50170898 C26.74755859 14.79931641 26.74755859 14.79931641 29.90991211 16.60717773 C30.4803273 16.92826004 31.05074249 17.24934235 31.63844299 17.58015442 C33.4468191 18.60273839 35.2425221 19.6455819 37.03881836 20.68920898 C38.23923593 21.37087757 39.44040321 22.05122769 40.64233398 22.73022461 C58.19398513 32.68704252 58.19398513 32.68704252 59.60131836 35.50170898 C59.85991971 39.55313017 59.9057339 41.04508568 57.60131836 44.50170898 C56.94131836 44.50170898 56.28131836 44.50170898 55.60131836 44.50170898 C55.60131836 45.49170898 55.60131836 46.48170898 55.60131836 47.50170898 C56.63579102 47.88649414 56.63579102 47.88649414 57.69116211 48.27905273 C62.16044456 50.15675127 66.30983681 52.58933601 70.54272461 54.94311523 C73.02087285 56.20592641 74.91521914 56.97859557 77.60131836 57.50170898 C79.08631836 57.99670898 79.08631836 57.99670898 80.60131836 58.50170898 C81.09631836 61.96670898 81.09631836 61.96670898 81.60131836 65.50170898 C78.96131836 65.83170898 76.32131836 66.16170898 73.60131836 66.50170898 C76.21934755 71.44815847 76.21934755 71.44815847 79.85131836 75.62670898 C81.60131836 77.50170898 81.60131836 77.50170898 82.10131836 80.00170898 C81.43318392 83.34238116 80.37471069 84.5528387 77.60131836 86.50170898 C73.86421321 86.59753219 72.62883109 85.52555335 69.78881836 83.06420898 C67.60131836 80.50170898 67.60131836 80.50170898 67.60131836 78.50170898 C66.94131836 78.50170898 66.28131836 78.50170898 65.60131836 78.50170898 C63.97631836 77.00170898 63.97631836 77.00170898 62.60131836 75.50170898 C62.31256836 76.24420898 62.02381836 76.98670898 61.72631836 77.75170898 C60.77829192 80.06910695 59.75285925 82.28088013 58.60131836 84.50170898 C56.95131836 84.17170898 55.30131836 83.84170898 53.60131836 83.50170898 C53.10631836 79.04670898 53.10631836 79.04670898 52.60131836 74.50170898 C51.94131836 74.50170898 51.28131836 74.50170898 50.60131836 74.50170898 C50.60131836 75.82170898 50.60131836 77.14170898 50.60131836 78.50170898 C42.84746778 78.59442972 35.0937473 78.66548407 27.33948135 78.70895767 C23.7387355 78.72982411 20.1383692 78.75812319 16.5378418 78.8034668 C13.06243923 78.84696023 9.58740148 78.8708532 6.11174774 78.88121796 C4.14186052 78.89219513 2.17211989 78.92341598 0.20245361 78.95489502 C-1.59896088 78.95534821 -1.59896088 78.95534821 -3.43676758 78.95581055 C-5.02228424 78.96913422 -5.02228424 78.96913422 -6.63983154 78.98272705 C-9.39868164 78.50170898 -9.39868164 78.50170898 -11.73796082 76.89935303 C-13.96055477 73.69051197 -13.91240563 71.5754836 -13.93212891 67.68530273 C-13.94074448 67.00839386 -13.94936005 66.33148499 -13.95823669 65.63406372 C-13.98089397 63.40205378 -13.97415979 61.17129956 -13.96508789 58.93920898 C-13.97032338 57.38508735 -13.97659959 55.83096891 -13.98387146 54.27685547 C-13.99427492 51.02190178 -13.98971499 47.76738529 -13.97509766 44.51245117 C-13.9579027 40.3423192 -13.98141227 36.17356415 -14.01658726 32.00358582 C-14.03855247 28.79503255 -14.0371222 25.5868093 -14.02882195 22.37820435 C-14.02800205 20.84081511 -14.03487279 19.30340174 -14.04959297 17.76608276 C-14.06702648 15.61590013 -14.05251273 13.46819824 -14.02978516 11.31811523 C-14.02882339 10.09552002 -14.02786163 8.8729248 -14.02687073 7.61328125 C-13.39868164 4.50170898 -13.39868164 4.50170898 -11.38415527 2.10704041 C-7.54951705 0.04510116 -4.24640448 -0.05264002 0 0 Z " fill="#E82027" transform="translate(134.398681640625,145.498291015625)"/>
<path d="M0 0 C0 2.31 0 4.62 0 7 C-0.66 7 -1.32 7 -2 7 C-2 7.66 -2 8.32 -2 9 C-0.68 8.67 0.64 8.34 2 8 C2 7.01 2 6.02 2 5 C4.97 5 7.94 5 11 5 C11 6.98 11 8.96 11 11 C12.65 11 14.3 11 16 11 C16 13.31 16 15.62 16 18 C14.35 18 12.7 18 11 18 C11.33 21.3 11.66 24.6 12 28 C13.98 27.505 13.98 27.505 16 27 C16.33 29.31 16.66 31.62 17 34 C14.20315672 35.90185343 12.89614391 35.99271185 9.4375 35.75 C6 35 6 35 3 33 C1.90493508 29.71480525 1.90039392 27.26336585 1.9375 23.8125 C1.94652344 22.72582031 1.95554687 21.63914063 1.96484375 20.51953125 C1.98224609 19.27236328 1.98224609 19.27236328 2 18 C-0.64 18 -3.28 18 -6 18 C-6 23.61 -6 29.22 -6 35 C-8.64 35 -11.28 35 -14 35 C-14 29.39 -14 23.78 -14 18 C-15.32 18 -16.64 18 -18 18 C-18 23.61 -18 29.22 -18 35 C-21.33333333 35 -24.66666667 35 -28 35 C-28.9075 35.226875 -29.815 35.45375 -30.75 35.6875 C-34.76645274 36.07369738 -36.62418765 35.11969613 -40 33 C-41.50934217 29.98131566 -41.17510672 27.32702771 -41 24 C-38.9927092 20.9890638 -38.16115776 20.36983503 -35 19 C-36.64574566 18.97311849 -38.29161413 18.95365877 -39.9375 18.9375 C-40.85402344 18.92589844 -41.77054687 18.91429687 -42.71484375 18.90234375 C-44.96593327 18.74050951 -44.96593327 18.74050951 -46 20 C-46.23653523 22.52596259 -46.42173692 25.03107207 -46.5625 27.5625 C-46.62727539 28.62887695 -46.62727539 28.62887695 -46.69335938 29.71679688 C-46.79971777 31.47761912 -46.90038846 33.2387832 -47 35 C-49.97 35 -52.94 35 -56 35 C-56 28.07 -56 21.14 -56 14 C-56.66 14 -57.32 14 -58 14 C-58 15.32 -58 16.64 -58 18 C-61.3 18 -64.6 18 -68 18 C-68.37127346 22.68367664 -68.37127346 22.68367664 -66.875 27 C-64.06863762 28.49672661 -61.99840718 27.73294398 -59 27 C-58.01 29.97 -58.01 29.97 -57 33 C-61.33828172 35.71142607 -64.1884625 36.39254698 -69.1015625 35.5078125 C-71.87303127 34.76647312 -73.80771427 33.86012123 -76 32 C-76.8125 29.3125 -76.8125 29.3125 -77 27 C-77.4125 27.4125 -77.825 27.825 -78.25 28.25 C-78.8275 28.8275 -79.405 29.405 -80 30 C-80.61875 30.680625 -81.2375 31.36125 -81.875 32.0625 C-84.93476456 34.85228533 -87.14624568 36.05506201 -91.3671875 35.9296875 C-94.98445247 35.59694206 -98.50293875 35.10144107 -102.0625 34.375 C-103.0215625 34.189375 -103.0215625 34.189375 -104 34 C-104.33 34.33 -104.66 34.66 -105 35 C-108.00331018 35.14193337 -110.99217134 35.04236378 -114 35 C-114 29.39 -114 23.78 -114 18 C-115.32 18.33 -116.64 18.66 -118 19 C-118.33 24.28 -118.66 29.56 -119 35 C-121.97 35 -124.94 35 -128 35 C-128 29.39 -128 23.78 -128 18 C-129.32 18 -130.64 18 -132 18 C-132.33 23.61 -132.66 29.22 -133 35 C-135.97 35 -138.94 35 -142 35 C-143.21611807 30.25134847 -143.14816693 25.61505567 -143.125 20.75 C-143.12886719 19.92242187 -143.13273437 19.09484375 -143.13671875 18.2421875 C-143.12669335 12.12669335 -143.12669335 12.12669335 -142 11 C-139.41182747 10.92810632 -136.8382749 11.00367557 -134.25 11.0625 C-132.02965595 11.25872256 -132.02965595 11.25872256 -131 10 C-123.54135338 9.63909774 -123.54135338 9.63909774 -120 12 C-119.01 11.34 -118.02 10.68 -117 10 C-113.625 9.5625 -113.625 9.5625 -110 10 C-106.84045695 12.54137159 -105.28459114 14.14622659 -104 18 C-103.90912109 16.17662109 -103.90912109 16.17662109 -103.81640625 14.31640625 C-103.73201668 12.73175772 -103.6473679 11.14712298 -103.5625 9.5625 C-103.52318359 8.76005859 -103.48386719 7.95761719 -103.44335938 7.13085938 C-103.11328125 1.11328125 -103.11328125 1.11328125 -102 0 C-99.32941149 -0.14115161 -96.67567762 -0.04247107 -94 0 C-94 3.63 -94 7.26 -94 11 C-93.34 10.67 -92.68 10.34 -92 10 C-87.96009652 9.61887703 -85.70678033 9.5759318 -82.1875 11.6875 C-79.93694956 14.06665332 -78.94979891 15.89156721 -78 19 C-77.79375 18.2575 -77.5875 17.515 -77.375 16.75 C-75.4868474 12.97369479 -73.80634156 11.83520039 -70 10 C-63.32276252 9.13063092 -56.35031938 10.24248129 -49.6875 10.87890625 C-47.02873507 11.21729282 -47.02873507 11.21729282 -45 10 C-42.66706666 9.95679753 -40.3329866 9.95977609 -38 10 C-35.85387869 10 -33.70661511 9.98730546 -31.5625 9.89453125 C-30.716875 9.86746094 -29.87125 9.84039062 -29 9.8125 C-28.154375 9.77769531 -27.30875 9.74289063 -26.4375 9.70703125 C-23.50836015 10.05909133 -22.18419261 11.07366346 -20 13 C-19.38125 12.34 -18.7625 11.68 -18.125 11 C-16 9 -16 9 -14 9 C-14.0825 8.071875 -14.165 7.14375 -14.25 6.1875 C-14 3 -14 3 -12.1875 1.1875 C-7.74054015 -1.22656392 -4.8984021 -0.83180413 0 0 Z M-40 13 C-39 15 -39 15 -39 15 Z M-30 17 C-30 17.66 -30 18.32 -30 19 C-29.01 18.67 -28.02 18.34 -27 18 C-27.99 17.67 -28.98 17.34 -30 17 Z M-93 18 C-94.14352916 20.28705831 -94.10334439 21.59264762 -94.0625 24.125 C-94.041875 25.40375 -94.02125 26.6825 -94 28 C-92.35 28 -90.7 28 -89 28 C-87.5216774 25.04335481 -87.93967217 22.25770263 -88 19 C-89.65 18.67 -91.3 18.34 -93 18 Z M-31 25 C-31.99 26.485 -31.99 26.485 -33 28 C-31.68 28.33 -30.36 28.66 -29 29 C-28.67 27.68 -28.34 26.36 -28 25 C-28.99 25 -29.98 25 -31 25 Z " fill="#DBDBDC" transform="translate(453,171)"/>
<path d="M0 0 C0.83311203 -0.00540298 1.66622406 -0.01080597 2.52458191 -0.01637268 C5.27057732 -0.02885118 8.01552257 -0.01237653 10.76147461 0.00561523 C12.67288773 0.00546024 14.58430116 0.00397119 16.49571228 0.00120544 C20.49793421 -0.0001781 24.49979757 0.01237333 28.50195312 0.03515625 C33.63242926 0.06355992 38.76231056 0.06079774 43.89283085 0.04806614 C47.83822208 0.04111261 51.78347574 0.0488942 55.72884941 0.06132317 C57.62068593 0.06583948 59.51253721 0.06617289 61.40437508 0.06225777 C64.04723543 0.05934826 66.68927465 0.0758391 69.33203125 0.09765625 C70.11395844 0.0931546 70.89588562 0.08865295 71.70150757 0.08401489 C74.90104059 0.12791382 77.21989516 0.29381109 80.0556488 1.83946228 C82.97678846 4.98091949 82.71965249 8.18988499 82.69897461 12.26342773 C82.69414062 13.94082031 82.69414062 13.94082031 82.68920898 15.65209961 C82.67664063 17.40296875 82.67664063 17.40296875 82.66381836 19.18920898 C82.65930664 20.36805664 82.65479492 21.5469043 82.65014648 22.76147461 C82.63835109 25.67493687 82.62189106 28.58829762 82.60131836 31.50170898 C80.35131836 32.68920898 80.35131836 32.68920898 77.60131836 33.50170898 C76.28131836 32.51170898 74.96131836 31.52170898 73.60131836 30.50170898 C73.60131836 23.57170898 73.60131836 16.64170898 73.60131836 9.50170898 C47.86131836 9.50170898 22.12131836 9.50170898 -4.39868164 9.50170898 C-4.39868164 29.30170898 -4.39868164 49.10170898 -4.39868164 69.50170898 C13.28277562 69.42252096 13.28277562 69.42252096 30.96411133 69.3215332 C33.17390755 69.31569428 35.38370591 69.31059731 37.59350586 69.30639648 C38.74923096 69.29616455 39.90495605 69.28593262 41.09570312 69.27539062 C42.19180908 69.27514893 43.28791504 69.27490723 44.41723633 69.2746582 C45.3720993 69.27021698 46.32696228 69.26577576 47.3107605 69.26119995 C49.60131836 69.50170898 49.60131836 69.50170898 51.60131836 71.50170898 C51.22631836 75.12670898 51.22631836 75.12670898 50.60131836 78.50170898 C42.84746778 78.59442972 35.0937473 78.66548407 27.33948135 78.70895767 C23.7387355 78.72982411 20.1383692 78.75812319 16.5378418 78.8034668 C13.06243923 78.84696023 9.58740148 78.8708532 6.11174774 78.88121796 C4.14186052 78.89219513 2.17211989 78.92341598 0.20245361 78.95489502 C-1.59896088 78.95534821 -1.59896088 78.95534821 -3.43676758 78.95581055 C-5.02228424 78.96913422 -5.02228424 78.96913422 -6.63983154 78.98272705 C-9.39868164 78.50170898 -9.39868164 78.50170898 -11.73796082 76.89935303 C-13.96055477 73.69051197 -13.91240563 71.5754836 -13.93212891 67.68530273 C-13.94074448 67.00839386 -13.94936005 66.33148499 -13.95823669 65.63406372 C-13.98089397 63.40205378 -13.97415979 61.17129956 -13.96508789 58.93920898 C-13.97032338 57.38508735 -13.97659959 55.83096891 -13.98387146 54.27685547 C-13.99427492 51.02190178 -13.98971499 47.76738529 -13.97509766 44.51245117 C-13.9579027 40.3423192 -13.98141227 36.17356415 -14.01658726 32.00358582 C-14.03855247 28.79503255 -14.0371222 25.5868093 -14.02882195 22.37820435 C-14.02800205 20.84081511 -14.03487279 19.30340174 -14.04959297 17.76608276 C-14.06702648 15.61590013 -14.05251273 13.46819824 -14.02978516 11.31811523 C-14.02882339 10.09552002 -14.02786163 8.8729248 -14.02687073 7.61328125 C-13.39868164 4.50170898 -13.39868164 4.50170898 -11.38415527 2.10704041 C-7.54951705 0.04510116 -4.24640448 -0.05264002 0 0 Z " fill="#E2222A" transform="translate(134.398681640625,145.498291015625)"/>
<path d="M0 0 C3.46679688 0.04882812 3.46679688 0.04882812 6.93359375 0.09765625 C6.93359375 3.72765625 6.93359375 7.35765625 6.93359375 11.09765625 C7.59359375 10.76765625 8.25359375 10.43765625 8.93359375 10.09765625 C15.10622205 9.64042452 15.10622205 9.64042452 18.30859375 11.41015625 C20.99331403 14.19813501 21.05596997 16.86359993 21.03125 20.546875 C21.02802734 21.39443359 21.02480469 22.24199219 21.02148438 23.11523438 C21.00891602 24.4368457 21.00891602 24.4368457 20.99609375 25.78515625 C20.99158203 26.67783203 20.98707031 27.57050781 20.98242188 28.49023438 C20.97064379 30.69273698 20.95270856 32.8952051 20.93359375 35.09765625 C17.96359375 35.09765625 14.99359375 35.09765625 11.93359375 35.09765625 C11.60359375 29.81765625 11.27359375 24.53765625 10.93359375 19.09765625 C9.94359375 19.09765625 8.95359375 19.09765625 7.93359375 19.09765625 C7.60359375 24.37765625 7.27359375 29.65765625 6.93359375 35.09765625 C3.96359375 35.09765625 0.99359375 35.09765625 -2.06640625 35.09765625 C-2.06640625 26.84765625 -2.06640625 18.59765625 -2.06640625 10.09765625 C-5.03640625 10.09765625 -8.00640625 10.09765625 -11.06640625 10.09765625 C-11.05855103 11.1803479 -11.05855103 11.1803479 -11.05053711 12.28491211 C-11.02983267 15.53498474 -11.01676707 18.78504353 -11.00390625 22.03515625 C-10.99552734 23.17146484 -10.98714844 24.30777344 -10.97851562 25.47851562 C-10.97368164 27.09790039 -10.97368164 27.09790039 -10.96875 28.75 C-10.96089478 30.2503479 -10.96089478 30.2503479 -10.95288086 31.78100586 C-11.06640625 34.09765625 -11.06640625 34.09765625 -12.06640625 35.09765625 C-14.70640625 35.09765625 -17.34640625 35.09765625 -20.06640625 35.09765625 C-20.06640625 26.84765625 -20.06640625 18.59765625 -20.06640625 10.09765625 C-23.03640625 10.09765625 -26.00640625 10.09765625 -29.06640625 10.09765625 C-29.06640625 7.45765625 -29.06640625 4.81765625 -29.06640625 2.09765625 C-28.28402588 2.0726001 -27.50164551 2.04754395 -26.69555664 2.02172852 C-23.17315676 1.90615837 -19.65105065 1.78325676 -16.12890625 1.66015625 C-14.89720703 1.62083984 -13.66550781 1.58152344 -12.39648438 1.54101562 C-10.64174805 1.47817383 -10.64174805 1.47817383 -8.8515625 1.4140625 C-7.7675415 1.37740479 -6.68352051 1.34074707 -5.56665039 1.30297852 C-2.84730645 1.07966358 -2.59078754 0.12243797 0 0 Z " fill="#DDDDDE" transform="translate(263.06640625,170.90234375)"/>
<path d="M0 0 C2.64 0 5.28 0 8 0 C8 0.66 8 1.32 8 2 C8.5775 2.103125 9.155 2.20625 9.75 2.3125 C12 3 12 3 13.671875 4.28515625 C16.77898411 6.57378192 20.09538304 8.32022247 23.5 10.125 C24.16386719 10.48464844 24.82773438 10.84429687 25.51171875 11.21484375 C28.65994529 12.89264113 31.53626565 14.20113972 35 15 C35.99 15.33 36.98 15.66 38 16 C38.495 19.465 38.495 19.465 39 23 C35.04 23.495 35.04 23.495 31 24 C33.61802919 28.94644949 33.61802919 28.94644949 37.25 33.125 C39 35 39 35 39.5 37.5 C38.83186557 40.84067217 37.77339233 42.05112972 35 44 C31.26289486 44.09582321 30.02751273 43.02384437 27.1875 40.5625 C25 38 25 38 25 36 C24.34 36 23.68 36 23 36 C21.375 34.5 21.375 34.5 20 33 C19.566875 34.11375 19.566875 34.11375 19.125 35.25 C18.17697356 37.56739797 17.15154089 39.77917115 16 42 C14.35 41.67 12.7 41.34 11 41 C10.5625 39.25 10.125 37.5 9.6875 35.75 C9.41421875 34.66074219 9.1409375 33.57148438 8.859375 32.44921875 C8.2998911 30.20365383 7.74743731 27.95632184 7.203125 25.70703125 C6.95046875 24.66933594 6.6978125 23.63164062 6.4375 22.5625 C6.20933594 21.61503906 5.98117188 20.66757813 5.74609375 19.69140625 C5.05466363 16.97679735 5.05466363 16.97679735 3.91015625 14.40234375 C3 12 3 12 3 8 C2.34 7.67 1.68 7.34 1 7 C0.59270772 4.67843403 0.25561323 2.3431213 0 0 Z " fill="#EAE9EA" transform="translate(177,188)"/>
<path d="M0 0 C0 2.31 0 4.62 0 7 C-0.66 7 -1.32 7 -2 7 C-2 7.66 -2 8.32 -2 9 C-0.68 8.67 0.64 8.34 2 8 C2 7.01 2 6.02 2 5 C4.97 5 7.94 5 11 5 C11 6.98 11 8.96 11 11 C12.65 11 14.3 11 16 11 C16 13.31 16 15.62 16 18 C14.35 18 12.7 18 11 18 C11.33 21.3 11.66 24.6 12 28 C13.32 27.67 14.64 27.34 16 27 C16.495 30.465 16.495 30.465 17 34 C14.20315672 35.90185343 12.89614391 35.99271185 9.4375 35.75 C6 35 6 35 3 33 C2.77892213 30.2114711 2.71892465 27.65346819 2.8125 24.875 C2.83280273 23.74384766 2.83280273 23.74384766 2.85351562 22.58984375 C2.88890015 20.72625873 2.94270833 18.86304022 3 17 C-0.3 17 -3.6 17 -7 17 C-7 22.61 -7 28.22 -7 34 C-8.98 34 -10.96 34 -13 34 C-13 28.39 -13 22.78 -13 17 C-14.65 17 -16.3 17 -18 17 C-18.6875 14.6875 -18.6875 14.6875 -19 12 C-17.6875 10.1875 -17.6875 10.1875 -16 9 C-15.34 9 -14.68 9 -14 9 C-14.0825 8.071875 -14.165 7.14375 -14.25 6.1875 C-14 3 -14 3 -12.1875 1.1875 C-7.74054015 -1.22656392 -4.8984021 -0.83180413 0 0 Z " fill="#F0F0F1" transform="translate(453,171)"/>
<path d="M0 0 C0.33 0.99 0.66 1.98 1 3 C1.66 3.33 2.32 3.66 3 4 C2.01 4 1.02 4 0 4 C0.33 25.12 0.66 46.24 1 68 C2.485 67.505 2.485 67.505 4 67 C5.70283422 66.91229823 7.40892748 66.88234607 9.11401367 66.88647461 C10.15486618 66.88655014 11.19571869 66.88662567 12.26811218 66.88670349 C13.39006485 66.89186478 14.51201752 66.89702606 15.66796875 66.90234375 C16.81791824 66.9037587 17.96786774 66.90517365 19.15266418 66.90663147 C22.83096908 66.91223571 26.50921345 66.92478896 30.1875 66.9375 C32.67903558 66.94251445 35.17057211 66.94707745 37.66210938 66.95117188 C43.77476029 66.96220653 49.88737582 66.97894882 56 67 C56 68.98 56 70.96 56 73 C37.19 73 18.38 73 -1 73 C-1.33 72.01 -1.66 71.02 -2 70 C-2.66 70 -3.32 70 -4 70 C-4.04638784 61.87218837 -4.0819019 53.74443227 -4.10362434 45.61652088 C-4.11405124 41.8422 -4.12819037 38.06796984 -4.15087891 34.29370117 C-4.17264644 30.64974262 -4.18457686 27.00587121 -4.18975449 23.36185265 C-4.19344323 21.97321896 -4.20064646 20.58458991 -4.21146011 19.19599342 C-4.22602615 17.24765316 -4.22681736 15.29922478 -4.22705078 13.35083008 C-4.231492 12.2427449 -4.23593323 11.13465973 -4.24050903 9.99299622 C-3.90215569 5.78238398 -2.99890405 2.99890405 0 0 Z " fill="#EA2329" transform="translate(127,150)"/>
<path d="M0 0 C2.05078125 0.03255208 4.1015625 0.06510417 6.15234375 0.09765625 C6.15234375 3.72765625 6.15234375 7.35765625 6.15234375 11.09765625 C6.81234375 10.76765625 7.47234375 10.43765625 8.15234375 10.09765625 C12.2540321 9.71070452 14.46703826 9.68051378 18.02734375 11.84765625 C21.7899885 15.83163304 21.44460176 20.4228428 21.359375 25.69140625 C21.07625154 28.98204869 20.42329277 30.68019439 18.15234375 33.09765625 C12.3679468 36.63912377 7.69765816 36.28173323 1.15234375 35.09765625 C-0.18245059 34.77022234 -1.516042 34.43779208 -2.84765625 34.09765625 C-2.87230913 29.41626371 -2.89049364 24.73490866 -2.90258789 20.0534668 C-2.90762782 18.45971011 -2.91445975 16.86595806 -2.9230957 15.2722168 C-2.93517624 12.98615372 -2.9408878 10.70015158 -2.9453125 8.4140625 C-2.95047379 7.69738907 -2.95563507 6.98071564 -2.96095276 6.24232483 C-2.96114888 4.52701953 -2.90957632 2.81184359 -2.84765625 1.09765625 C-1.84765625 0.09765625 -1.84765625 0.09765625 0 0 Z M7.15234375 18.09765625 C6.00881459 20.38471456 6.04899936 21.69030387 6.08984375 24.22265625 C6.11046875 25.50140625 6.13109375 26.78015625 6.15234375 28.09765625 C7.80234375 28.09765625 9.45234375 28.09765625 11.15234375 28.09765625 C12.63066635 25.14101106 12.21267158 22.35535888 12.15234375 19.09765625 C10.50234375 18.76765625 8.85234375 18.43765625 7.15234375 18.09765625 Z " fill="#E5E5E5" transform="translate(352.84765625,170.90234375)"/>
<path d="M0 0 C3.66666667 0 7.33333333 0 11 0 C12.18916016 -0.08701172 12.18916016 -0.08701172 13.40234375 -0.17578125 C20.36188077 -0.55110297 20.36188077 -0.55110297 23.75 2.375 C24.86375 3.674375 24.86375 3.674375 26 5 C27.98 5.66 29.96 6.32 32 7 C32 12.61 32 18.22 32 24 C33.98 24 35.96 24 38 24 C38 18.39 38 12.78 38 7 C41.3 7 44.6 7 48 7 C48 11.29 48 15.58 48 20 C47.67 20 47.34 20 47 20 C47 16.04 47 12.08 47 8 C44.36 8 41.72 8 39 8 C39 13.61 39 19.22 39 25 C36.36 25 33.72 25 31 25 C31 19.39 31 13.78 31 8 C29.68 8 28.36 8 27 8 C27 13.61 27 19.22 27 25 C23.66666667 25 20.33333333 25 17 25 C16.0925 25.226875 15.185 25.45375 14.25 25.6875 C10.23354726 26.07369738 8.37581235 25.11969613 5 23 C3.49065783 19.98131566 3.82489328 17.32702771 4 14 C6 11 6 11 10 9 C6.7 8.67 3.4 8.34 0 8 C1.32 7.67 2.64 7.34 4 7 C3.72965366 4.56282742 3.72965366 4.56282742 3 2 C2.01 1.34 1.02 0.68 0 0 Z M5 3 C6 5 6 5 6 5 Z M15 7 C15 7.66 15 8.32 15 9 C15.99 8.67 16.98 8.34 18 8 C17.01 7.67 16.02 7.34 15 7 Z M14 15 C13.01 16.485 13.01 16.485 12 18 C13.32 18.33 14.64 18.66 16 19 C16.33 17.68 16.66 16.36 17 15 C16.01 15 15.02 15 14 15 Z M1 2 C3 3 3 3 3 3 Z " fill="#D1D1D2" transform="translate(408,181)"/>
<path d="M0 0 C2.97 0 5.94 0 9 0 C9.33 5.28 9.66 10.56 10 16 C10.99 16.33 11.98 16.66 13 17 C13.33 11.39 13.66 5.78 14 0 C16.97 0 19.94 0 23 0 C23 7.92 23 15.84 23 24 C19.7 24 16.4 24 13 24 C11.741875 24.2475 10.48375 24.495 9.1875 24.75 C6 25 6 25 3.125 23.25 C0.22590145 20.18036624 -0.12645292 17.82986135 -0.09765625 13.76953125 C-0.09282227 12.56586914 -0.09282227 12.56586914 -0.08789062 11.33789062 C-0.07951172 10.50451172 -0.07113281 9.67113281 -0.0625 8.8125 C-0.05798828 7.96751953 -0.05347656 7.12253906 -0.04882812 6.25195312 C-0.03705403 4.16793845 -0.0191189 2.08396023 0 0 Z " fill="#DEDEDE" transform="translate(286,182)"/>
<path d="M0 0 C11.1438844 -0.06947729 22.28771736 -0.12279977 33.43177414 -0.15543652 C38.60628656 -0.17109967 43.78065092 -0.1923499 48.95507812 -0.22631836 C53.94767972 -0.25888849 58.94013881 -0.27684812 63.93283844 -0.28463173 C65.83865859 -0.29017945 67.74447085 -0.30101265 69.65023041 -0.31719017 C72.31744815 -0.33893326 74.98407523 -0.34196824 77.65136719 -0.34057617 C78.4411496 -0.351362 79.23093201 -0.36214783 80.04464722 -0.3732605 C83.26686659 -0.35503512 85.59914337 -0.21740301 88.45928955 1.33378601 C91.37099887 4.48267801 91.11833827 7.68736073 91.09765625 11.76171875 C91.09282227 13.43911133 91.09282227 13.43911133 91.08789062 15.15039062 C91.07532227 16.90125977 91.07532227 16.90125977 91.0625 18.6875 C91.05798828 19.86634766 91.05347656 21.04519531 91.04882812 22.25976562 C91.03703273 25.17322789 91.0205727 28.08658863 91 31 C88.75 32.1875 88.75 32.1875 86 33 C84.68 32.01 83.36 31.02 82 30 C82 23.07 82 16.14 82 9 C56.26 9 30.52 9 4 9 C4 28.8 4 48.6 4 69 C5.65 69 7.3 69 9 69 C9 69.33 9 69.66 9 70 C7.02 70 5.04 70 3 70 C3 49.54 3 29.08 3 8 C22.92516517 7.95989119 22.92516517 7.95989119 31.38867188 7.95117188 C37.17408154 7.94518347 42.95947545 7.93808324 48.74487305 7.92456055 C53.4067712 7.91373153 58.06865246 7.90772314 62.73056221 7.90512276 C64.51324288 7.90326853 66.29592259 7.89964797 68.07859612 7.89426994 C70.5666596 7.88705931 73.05465243 7.88600907 75.54272461 7.88647461 C76.28718842 7.88287933 77.03165222 7.87928406 77.79867554 7.87557983 C82.88594784 7.88594784 82.88594784 7.88594784 84 9 C84.08685603 10.56172745 84.10702219 12.12729344 84.09765625 13.69140625 C84.09282227 15.10776367 84.09282227 15.10776367 84.08789062 16.55273438 C84.07532227 18.04256836 84.07532227 18.04256836 84.0625 19.5625 C84.05798828 20.55958984 84.05347656 21.55667969 84.04882812 22.58398438 C84.03700007 25.05604849 84.02051849 27.52799518 84 30 C85.65 30 87.3 30 89 30 C88.67 21.09 88.34 12.18 88 3 C58.63 2.67 29.26 2.34 -1 2 C-0.67 1.34 -0.34 0.68 0 0 Z " fill="#87191D" transform="translate(126,146)"/>
<path d="M0 0 C0.66 0 1.32 0 2 0 C1.67 0.99 1.34 1.98 1 3 C0.34 3 -0.32 3 -1 3 C-0.938825 11.81450392 -0.86174554 20.62868264 -0.76428509 29.4428606 C-0.71953281 33.53553618 -0.68028768 37.6281111 -0.65356445 41.72094727 C-0.62757951 45.66983715 -0.587212 49.61834066 -0.53681374 53.56699181 C-0.52011229 55.07444139 -0.50861844 56.58195786 -0.50238609 58.08948708 C-0.4927801 60.19915011 -0.46476581 62.30781739 -0.43237305 64.41723633 C-0.42126999 65.61858719 -0.41016693 66.81993805 -0.39872742 68.05769348 C-0.21268619 70.94754189 -0.21268619 70.94754189 1.17871094 72.88439941 C3.71428682 74.43752462 5.6058846 74.39962345 8.57299805 74.43237305 C9.71395432 74.45216721 10.85491058 74.47196136 12.03044128 74.49235535 C13.26176285 74.49874527 14.49308441 74.50513519 15.76171875 74.51171875 C17.02264847 74.52966995 18.28357819 74.54762115 19.5827179 74.56611633 C22.93155514 74.61115424 26.2800242 74.64342741 29.62902832 74.66955566 C33.04774286 74.69935766 36.4662251 74.7458891 39.88476562 74.79101562 C46.58973671 74.87611681 53.29472294 74.94439831 60 75 C60 73.02 60 71.04 60 69 C32.775 69.495 32.775 69.495 5 70 C3.63760924 67.27521848 3.88030042 65.13159145 3.88647461 62.08154297 C3.88655014 60.84040741 3.88662567 59.59927185 3.88670349 58.32052612 C3.8918105 56.96107951 3.8970265 55.60163331 3.90234375 54.2421875 C3.90420858 52.85499116 3.90563218 51.46779416 3.90663147 50.08059692 C3.91045152 46.42765488 3.92027745 42.77475252 3.93133545 39.12182617 C3.94156056 35.39502499 3.94613145 31.66821741 3.95117188 27.94140625 C3.96190017 20.62758606 3.97897046 13.31379859 4 6 C4.66 6 5.32 6 6 6 C6 26.46 6 46.92 6 68 C8.97 67.505 8.97 67.505 12 67 C13.71418181 66.91075492 15.43097474 66.86242369 17.14746094 66.85473633 C18.12156921 66.84835648 19.09567749 66.84197662 20.0993042 66.83540344 C21.65116425 66.83373421 21.65116425 66.83373421 23.234375 66.83203125 C24.30874817 66.82870285 25.38312134 66.82537445 26.49005127 66.82194519 C28.75264051 66.81689651 31.01523716 66.81453623 33.27783203 66.81469727 C36.75175005 66.81249889 40.22535637 66.79428899 43.69921875 66.77539062 C45.89843641 66.77245874 48.09765558 66.77047257 50.296875 66.76953125 C51.86088043 66.75875298 51.86088043 66.75875298 53.45648193 66.74775696 C54.41798157 66.75083359 55.3794812 66.75391022 56.37011719 66.75708008 C57.21805847 66.75565506 58.06599976 66.75423004 58.93963623 66.75276184 C61 67 61 67 63 69 C62.625 72.625 62.625 72.625 62 76 C54.24614942 76.09272074 46.49242894 76.16377508 38.73816299 76.20724869 C35.13741714 76.22811513 31.53705084 76.25641421 27.93652344 76.30175781 C24.46112087 76.34525125 20.98608312 76.36914421 17.51042938 76.37950897 C15.54054216 76.39048615 13.57080153 76.421707 11.60113525 76.45318604 C9.79972076 76.45363922 9.79972076 76.45363922 7.96191406 76.45410156 C6.3763974 76.46742523 6.3763974 76.46742523 4.7588501 76.48101807 C2 76 2 76 -0.34225464 74.39962769 C-2.57005104 71.17483693 -2.49489931 69.05731734 -2.48583984 65.15185547 C-2.48963654 64.47173401 -2.49343323 63.79161255 -2.49734497 63.09088135 C-2.50473781 60.84917674 -2.48339241 58.60877628 -2.4609375 56.3671875 C-2.45855271 54.80827995 -2.45764783 53.24936949 -2.4581604 51.69046021 C-2.45503487 48.42708284 -2.43848602 45.16414559 -2.41162109 41.90087891 C-2.37758493 37.71300394 -2.36999421 33.52561115 -2.37151146 29.33761406 C-2.37096837 26.12060931 -2.3600121 22.90371046 -2.34550858 19.68674088 C-2.33913515 18.14213996 -2.33520041 16.59752702 -2.33372116 15.05291367 C-2.32939698 12.89818494 -2.31191767 10.7439735 -2.29052734 8.58935547 C-2.28290375 7.36231903 -2.27528015 6.13528259 -2.26742554 4.87106323 C-2 2 -2 2 0 0 Z " fill="#B62A30" transform="translate(123,148)"/>
<path d="M0 0 C2.64590014 -0.02684679 5.29153096 -0.04676357 7.9375 -0.0625 C8.69224609 -0.07087891 9.44699219 -0.07925781 10.22460938 -0.08789062 C12.14994313 -0.09652441 14.07535581 -0.05224333 16 0 C17 1 17 1 17.0625 3.5625 C17.041875 4.366875 17.02125 5.17125 17 6 C15.68 6 14.36 6 13 6 C11.81304447 9.56086658 11.64904582 12.97331024 11.4375 16.6875 C11.39431641 17.38939453 11.35113281 18.09128906 11.30664062 18.81445312 C11.2008264 20.54275206 11.09993419 22.2713511 11 24 C8.03 24 5.06 24 2 24 C1.93941406 22.51886719 1.87882812 21.03773438 1.81640625 19.51171875 C1.73199685 17.57030266 1.64734905 15.62889692 1.5625 13.6875 C1.52318359 12.71103516 1.48386719 11.73457031 1.44335938 10.72851562 C1.40146484 9.79072266 1.35957031 8.85292969 1.31640625 7.88671875 C1.27974854 7.02264404 1.24309082 6.15856934 1.20532227 5.26831055 C1.07252646 2.8352174 1.07252646 2.8352174 0 0 Z " fill="#E0E0E1" transform="translate(395,182)"/>
<path d="M0 0 C1.31602523 0.61754259 2.62773556 1.24428742 3.9375 1.875 C4.66839844 2.22304687 5.39929688 2.57109375 6.15234375 2.9296875 C8 4 8 4 9 6 C9.25860135 10.05142119 9.30441554 11.54337669 7 15 C6.34 15 5.68 15 5 15 C5 15.99 5 16.98 5 18 C3 17 3 17 0 15 C0 14.34 0 13.68 0 13 C-2.64 13 -5.28 13 -8 13 C-7.01 15.97 -6.02 18.94 -5 22 C-6.74552064 23.15264553 -8.49660196 24.29687327 -10.25 25.4375 C-11.22453125 26.07558594 -12.1990625 26.71367187 -13.203125 27.37109375 C-15.58381615 28.7576136 -17.31780307 29.546581 -20 30 C-20 29.01 -20 28.02 -20 27 C-18.68 27 -17.36 27 -16 27 C-16 26.01 -16 25.02 -16 24 C-12.535 23.505 -12.535 23.505 -9 23 C-9 18.71 -9 14.42 -9 10 C-6.36 10.33 -3.72 10.66 -1 11 C-0.45627049 7.94152152 0 5.11227195 0 2 C0 1.34 0 0.68 0 0 Z " fill="#E2232D" transform="translate(185,175)"/>
<path d="M0 0 C0.66 0.33 1.32 0.66 2 1 C1.34 1.66 0.68 2.32 0 3 C-0.18784672 5.97817294 -0.25549078 8.86173144 -0.23046875 11.83984375 C-0.23001053 12.71774063 -0.22955231 13.59563751 -0.2290802 14.50013733 C-0.22605626 16.35874786 -0.21816573 18.21735581 -0.20581055 20.07592773 C-0.18759627 22.92245459 -0.18530057 25.76865543 -0.18554688 28.61523438 C-0.18063004 30.41927365 -0.17480099 32.22331071 -0.16796875 34.02734375 C-0.16629951 35.30713356 -0.16629951 35.30713356 -0.16459656 36.61277771 C-0.13750963 39.98449092 -0.07341299 42.77976103 1 46 C3.50447516 47.21869929 3.50447516 47.21869929 6 48 C6 47.34 6 46.68 6 46 C7.32 46 8.64 46 10 46 C10 45.34 10 44.68 10 44 C11.65 44 13.3 44 15 44 C12.43233976 46.99560362 9.66008487 48.5646726 6 50 C2.8125 50 2.8125 50 0 49 C-3.70737692 44.5579462 -3.43721423 40.15016749 -3.3984375 34.6484375 C-3.40130768 33.75258942 -3.40417786 32.85674133 -3.40713501 31.93374634 C-3.40917124 30.04599371 -3.40367227 28.15821976 -3.39111328 26.27050781 C-3.37501546 23.37777796 -3.39099613 20.48643728 -3.41015625 17.59375 C-3.40817448 15.75780941 -3.40433217 13.92186969 -3.3984375 12.0859375 C-3.40451019 11.22028168 -3.41058289 10.35462585 -3.4168396 9.46273804 C-3.40265488 8.25600937 -3.40265488 8.25600937 -3.38818359 7.02490234 C-3.38579681 6.31828461 -3.38341003 5.61166687 -3.38095093 4.88363647 C-2.89347175 2.47326419 -1.84604564 1.5617156 0 0 Z " fill="#A82C32" transform="translate(150,161)"/>
<path d="M0 0 C0.66 0 1.32 0 2 0 C1.67 0.99 1.34 1.98 1 3 C0.34 3 -0.32 3 -1 3 C-0.96195653 11.79728903 -0.90261531 20.59410161 -0.81609726 29.39104843 C-0.7765918 33.47588455 -0.74441863 37.56050411 -0.72900391 41.64550781 C-0.71385714 45.58799676 -0.67944794 49.52989049 -0.63169098 53.47211456 C-0.61685653 54.97594275 -0.6089578 56.4798559 -0.60811615 57.98375702 C-0.60575073 60.0910534 -0.57871062 62.19669909 -0.54589844 64.30371094 C-0.53701599 65.50284119 -0.52813354 66.70197144 -0.51898193 67.93743896 C0.09405015 71.55499874 1.1858733 72.73613471 4 75 C1 75 1 75 -0.66423035 73.9209137 C-2.65646287 71.05596858 -2.37408597 68.72961144 -2.37231445 65.26538086 C-2.37596512 64.58540543 -2.37961578 63.90542999 -2.38337708 63.20484924 C-2.39148128 60.95792647 -2.37787575 58.7117251 -2.36328125 56.46484375 C-2.36276268 54.90450542 -2.36328025 53.34416642 -2.36479187 51.78382874 C-2.36470216 48.51455934 -2.35427367 45.24553659 -2.33618164 41.97631836 C-2.31347557 37.78058255 -2.31295379 33.5852066 -2.31969929 29.38942623 C-2.32303632 26.1681446 -2.31641454 22.94694541 -2.30657005 19.7256794 C-2.30271458 18.17828363 -2.30157127 16.63087869 -2.3031559 15.08347893 C-2.30352569 12.92388213 -2.2909319 10.76475154 -2.2746582 8.60522461 C-2.27005081 7.37517197 -2.26544342 6.14511932 -2.26069641 4.87779236 C-2 2 -2 2 0 0 Z " fill="#972A2D" transform="translate(123,148)"/>
<path d="M0 0 C1.32 0.33 2.64 0.66 4 1 C4.94721072 3.60482949 5.30222393 5.30674701 4.17578125 7.890625 C3.17063275 9.62582873 2.0893855 11.31640423 1 13 C-0.32 13 -1.64 13 -3 13 C-3.31563182 7.73946963 -2.66590937 4.55426184 0 0 Z " fill="#BDBEBF" transform="translate(203,180)"/>
<path d="M0 0 C2.31 0.33 4.62 0.66 7 1 C7 1.66 7 2.32 7 3 C5.02 3 3.04 3 1 3 C1.99 5.97 2.98 8.94 4 12 C2.25447936 13.15264553 0.50339804 14.29687327 -1.25 15.4375 C-2.22453125 16.07558594 -3.1990625 16.71367187 -4.203125 17.37109375 C-6.58381615 18.7576136 -8.31780307 19.546581 -11 20 C-11 19.01 -11 18.02 -11 17 C-9.68 17 -8.36 17 -7 17 C-7 16.01 -7 15.02 -7 14 C-3.535 13.505 -3.535 13.505 0 13 C0 8.71 0 4.42 0 0 Z " fill="#BC3C3A" transform="translate(176,185)"/>
<path d="M0 0 C0.59167969 0.22042969 1.18335938 0.44085938 1.79296875 0.66796875 C1.54296875 2.54296875 1.54296875 2.54296875 0.79296875 4.66796875 C-1.26953125 5.91796875 -1.26953125 5.91796875 -3.20703125 6.66796875 C-2.87703125 7.65796875 -2.54703125 8.64796875 -2.20703125 9.66796875 C-3.85703125 9.66796875 -5.50703125 9.66796875 -7.20703125 9.66796875 C-7.875 7.875 -7.875 7.875 -8.20703125 5.66796875 C-7.1328125 3.9296875 -7.1328125 3.9296875 -5.51953125 2.35546875 C-4.74029297 1.55689453 -4.74029297 1.55689453 -3.9453125 0.7421875 C-2.20703125 -0.33203125 -2.20703125 -0.33203125 0 0 Z " fill="#B2B3B3" transform="translate(215.20703125,187.33203125)"/>
<path d="M0 0 C-0.33 1.32 -0.66 2.64 -1 4 C-4.96 4 -8.92 4 -13 4 C-13 2.68 -13 1.36 -13 0 C-11.20909747 -0.19466332 -9.41723495 -0.38051213 -7.625 -0.5625 C-6.12839844 -0.71912109 -6.12839844 -0.71912109 -4.6015625 -0.87890625 C-2 -1 -2 -1 0 0 Z " fill="#BDBEBF" transform="translate(222,198)"/>
<path d="M0 0 C2.64 0 5.28 0 8 0 C8 0.66 8 1.32 8 2 C9.32 2.33 10.64 2.66 12 3 C12 3.33 12 3.66 12 4 C9.03 3.67 6.06 3.34 3 3 C3.33 5.97 3.66 8.94 4 12 C3.67 10.68 3.34 9.36 3 8 C2.34 7.67 1.68 7.34 1 7 C0.59270772 4.67843403 0.25561323 2.3431213 0 0 Z " fill="#E2B0AB" transform="translate(177,188)"/>
<path d="M0 0 C0.598125 0.639375 1.19625 1.27875 1.8125 1.9375 C3.90810337 4.20310389 3.90810337 4.20310389 7 5 C7 4.34 7 3.68 7 3 C8.32 3 9.64 3 11 3 C11 2.34 11 1.68 11 1 C12.65 1 14.3 1 16 1 C13.43233976 3.99560362 10.66008487 5.5646726 7 7 C3.75 6.9375 3.75 6.9375 1 6 C-0.4375 4.0625 -0.4375 4.0625 -1 2 C-0.67 1.34 -0.34 0.68 0 0 Z " fill="#A12024" transform="translate(149,204)"/>
<path d="M0 0 C6.68412752 3.63566563 13.35556707 7.29224236 20 11 C16.68604014 12.08784335 16.16419665 12.07262544 12.75 10.5625 C11.8425 10.046875 10.935 9.53125 10 9 C10 8.34 10 7.68 10 7 C8.865625 6.731875 7.73125 6.46375 6.5625 6.1875 C5.386875 5.795625 4.21125 5.40375 3 5 C2.67 4.01 2.34 3.02 2 2 C1.34 2 0.68 2 0 2 C0 1.34 0 0.68 0 0 Z " fill="#9E1C24" transform="translate(161,161)"/>
<path d="M0 0 C1.65 0 3.3 0 5 0 C5 2.31 5 4.62 5 7 C3.35 7 1.7 7 0 7 C0.33 10.63 0.66 14.26 1 18 C0.34 18 -0.32 18 -1 18 C-1.05389087 16.04196493 -1.09274217 14.08351091 -1.125 12.125 C-1.14820313 11.03445312 -1.17140625 9.94390625 -1.1953125 8.8203125 C-1 6 -1 6 1 4 C1.33 3.34 1.66 2.68 2 2 C1.34 1.34 0.68 0.68 0 0 Z " fill="#BCBDBE" transform="translate(464,182)"/>
<path d="M0 0 C0.33 0 0.66 0 1 0 C1 2.31 1 4.62 1 7 C-2.3 7 -5.6 7 -9 7 C-8.625 4.5625 -8.625 4.5625 -8 2 C-7.34 1.67 -6.68 1.34 -6 1 C-6.33 1.99 -6.66 2.98 -7 4 C-6.34 4.33 -5.68 4.66 -5 5 C-4.67 4.34 -4.34 3.68 -4 3 C-2.68 3 -1.36 3 0 3 C0 2.01 0 1.02 0 0 Z " fill="#8D8D8E" transform="translate(455,176)"/>
<path d="M0 0 C3 1 3 1 4 3 C4.25860135 7.05142119 4.30441554 8.54337669 2 12 C1.34 12 0.68 12 0 12 C0 12.99 0 13.98 0 15 C-2 14 -2 14 -3 11 C-1.68 11 -0.36 11 1 11 C1.33 8.03 1.66 5.06 2 2 C1.34 2 0.68 2 0 2 C0 1.34 0 0.68 0 0 Z " fill="#902729" transform="translate(190,178)"/>
<path d="M0 0 C-1.24556092 0.81928886 -2.49666635 1.63015186 -3.75 2.4375 C-4.44609375 2.88996094 -5.1421875 3.34242188 -5.859375 3.80859375 C-7.92957014 4.9608009 -9.68696324 5.54676982 -12 6 C-12 5.01 -12 4.02 -12 3 C-10.68 3 -9.36 3 -8 3 C-8 2.01 -8 1.02 -8 0 C-4.90645403 -0.99435406 -3.09720845 -0.87840996 0 0 Z " fill="#A52327" transform="translate(177,199)"/>
<path d="M0 0 C2.475 0.99 2.475 0.99 5 2 C5 2.99 5 3.98 5 5 C5.66 5 6.32 5 7 5 C6.67 6.32 6.34 7.64 6 9 C6 8.34 6 7.68 6 7 C5.34 7 4.68 7 4 7 C3.34 7.66 2.68 8.32 2 9 C0.21742529 5.76908333 0 3.67481998 0 0 Z " fill="#D02329" transform="translate(185,175)"/>
<path d="M0 0 C0.99 0.33 1.98 0.66 3 1 C2.67 3.31 2.34 5.62 2 8 C0.02 8 -1.96 8 -4 8 C-2.68 7.67 -1.36 7.34 0 7 C0 4.69 0 2.38 0 0 Z " fill="#AE443E" transform="translate(183,216)"/>
<path d="M0 0 C0.99 0.33 1.98 0.66 3 1 C3 3.31 3 5.62 3 8 C1.68 7.67 0.36 7.34 -1 7 C-0.67 4.69 -0.34 2.38 0 0 Z " fill="#E31B20" transform="translate(188,181)"/>
<path d="M0 0 C0.66 0 1.32 0 2 0 C1.67 0.99 1.34 1.98 1 3 C0.34 3 -0.32 3 -1 3 C-1 7.29 -1 11.58 -1 16 C-1.33 16 -1.66 16 -2 16 C-2.05384521 13.70858714 -2.09272087 11.41681812 -2.125 9.125 C-2.14820312 7.84882813 -2.17140625 6.57265625 -2.1953125 5.2578125 C-2 2 -2 2 0 0 Z " fill="#882124" transform="translate(123,148)"/>
<path d="M0 0 C1.9375 0.3125 1.9375 0.3125 4 1 C4.33 1.99 4.66 2.98 5 4 C4.01 4 3.02 4 2 4 C1.67 4.66 1.34 5.32 1 6 C0.34 5.67 -0.32 5.34 -1 5 C-0.67 3.35 -0.34 1.7 0 0 Z " fill="#C5C4C6" transform="translate(203,180)"/>
<path d="M0 0 C1.65 0.33 3.3 0.66 5 1 C4.01 1.66 3.02 2.32 2 3 C2.99 3.33 3.98 3.66 5 4 C3.35 4 1.7 4 0 4 C0 2.68 0 1.36 0 0 Z " fill="#7F7F7F" transform="translate(421,187)"/>
<path d="" fill="#000000" transform="translate(0,0)"/>
<path d="" fill="#000000" transform="translate(0,0)"/>
<path d="" fill="#000000" transform="translate(0,0)"/>
<path d="" fill="#000000" transform="translate(0,0)"/>
<path d="" fill="#000000" transform="translate(0,0)"/>
<path d="" fill="#000000" transform="translate(0,0)"/>
<path d="" fill="#000000" transform="translate(0,0)"/>
<path d="" fill="#000000" transform="translate(0,0)"/>
<path d="" fill="#000000" transform="translate(0,0)"/>
<path d="" fill="#000000" transform="translate(0,0)"/>
<path d="" fill="#000000" transform="translate(0,0)"/>
<path d="" fill="#000000" transform="translate(0,0)"/>
<path d="" fill="#000000" transform="translate(0,0)"/>
<path d="" fill="#000000" transform="translate(0,0)"/>
<path d="" fill="#000000" transform="translate(0,0)"/>
<path d="" fill="#000000" transform="translate(0,0)"/>
<path d="" fill="#000000" transform="translate(0,0)"/>
<path d="" fill="#000000" transform="translate(0,0)"/>
<path d="" fill="#000000" transform="translate(0,0)"/>
<path d="" fill="#000000" transform="translate(0,0)"/>
<path d="" fill="#000000" transform="translate(0,0)"/>
<path d="" fill="#000000" transform="translate(0,0)"/>
<path d="" fill="#000000" transform="translate(0,0)"/>
<path d="" fill="#000000" transform="translate(0,0)"/>
<path d="" fill="#000000" transform="translate(0,0)"/>
<path d="" fill="#000000" transform="translate(0,0)"/>
<path d="" fill="#000000" transform="translate(0,0)"/>
<path d="" fill="#000000" transform="translate(0,0)"/>
<path d="" fill="#000000" transform="translate(0,0)"/>
<path d="" fill="#000000" transform="translate(0,0)"/>
<path d="" fill="#000000" transform="translate(0,0)"/>
<path d="" fill="#000000" transform="translate(0,0)"/>
<path d="" fill="#000000" transform="translate(0,0)"/>
<path d="" fill="#000000" transform="translate(0,0)"/>
<path d="" fill="#000000" transform="translate(0,0)"/>
<path d="" fill="#000000" transform="translate(0,0)"/>
<path d="" fill="#000000" transform="translate(0,0)"/>
<path d="" fill="#000000" transform="translate(0,0)"/>
<path d="" fill="#000000" transform="translate(0,0)"/>
<path d="" fill="#000000" transform="translate(0,0)"/>
<path d="" fill="#000000" transform="translate(0,0)"/>
<path d="" fill="#000000" transform="translate(0,0)"/>
<path d="" fill="#000000" transform="translate(0,0)"/>
<path d="" fill="#000000" transform="translate(0,0)"/>
<path d="" fill="#000000" transform="translate(0,0)"/>
<path d="" fill="#000000" transform="translate(0,0)"/>
<path d="" fill="#000000" transform="translate(0,0)"/>
<path d="" fill="#000000" transform="translate(0,0)"/>
<path d="" fill="#000000" transform="translate(0,0)"/>
<path d="" fill="#000000" transform="translate(0,0)"/>
<path d="" fill="#000000" transform="translate(0,0)"/>
<path d="" fill="#000000" transform="translate(0,0)"/>
<path d="" fill="#000000" transform="translate(0,0)"/>
<path d="" fill="#000000" transform="translate(0,0)"/>
<path d="" fill="#000000" transform="translate(0,0)"/>
<path d="" fill="#000000" transform="translate(0,0)"/>
<path d="" fill="#000000" transform="translate(0,0)"/>
<path d="" fill="#000000" transform="translate(0,0)"/>
<path d="" fill="#000000" transform="translate(0,0)"/>
<path d="" fill="#000000" transform="translate(0,0)"/>
<path d="" fill="#000000" transform="translate(0,0)"/>
<path d="" fill="#000000" transform="translate(0,0)"/>
<path d="" fill="#000000" transform="translate(0,0)"/>
<path d="" fill="#000000" transform="translate(0,0)"/>
<path d="" fill="#000000" transform="translate(0,0)"/>
<path d="" fill="#000000" transform="translate(0,0)"/>
<path d="" fill="#000000" transform="translate(0,0)"/>
<path d="" fill="#000000" transform="translate(0,0)"/>
<path d="" fill="#000000" transform="translate(0,0)"/>
<path d="" fill="#000000" transform="translate(0,0)"/>
<path d="" fill="#000000" transform="translate(0,0)"/>
<path d="" fill="#000000" transform="translate(0,0)"/>
</svg>
